<?xml version="1.0" standalone="no"?>
<!DOCTYPE svg PUBLIC "-//W3C//DTD SVG 20010904//EN"
 "http://www.w3.org/TR/2001/REC-SVG-20010904/DTD/svg10.dtd">
<svg version="1.0" xmlns="http://www.w3.org/2000/svg"
 width="300.000000pt" height="300.000000pt" viewBox="0 0 300.000000 300.000000"
 preserveAspectRatio="xMidYMid meet">
<metadata>
Created by potrace 1.10, written by Peter Selinger 2001-2011
</metadata>
<g transform="translate(0.000000,300.000000) scale(0.100000,-0.100000)"
fill="#000000" stroke="none">
<path d="M1360 2414 c-199 -40 -369 -125 -503 -252 -109 -104 -210 -281 -254
-442 -25 -93 -25 -349 1 -440 44 -161 127 -310 233 -421 128 -134 329 -240
513 -269 451 -71 878 189 1026 623 34 99 48 213 41 341 -7 132 -26 212 -77
323 -118 255 -319 429 -586 509 -74 22 -112 27 -229 29 -77 2 -151 1 -165 -1z
m257 -35 c202 -27 373 -111 516 -252 73 -73 101 -108 150 -198 124 -222 142
-512 49 -752 -140 -362 -495 -587 -886 -564 -327 20 -604 203 -746 492 -71
147 -85 210 -85 395 0 182 13 246 81 387 95 198 252 345 463 434 82 34 86 36
196 54 102 17 164 18 262 4z"/>
<path d="M1375 2344 c-121 -29 -160 -42 -223 -70 -179 -81 -337 -237 -419
-413 -61 -133 -77 -209 -77 -361 1 -158 19 -242 84 -373 100 -206 278 -362
501 -439 91 -32 99 -33 259 -33 160 0 168 1 259 33 204 71 364 201 470 382 85
147 115 257 115 430 0 136 -19 230 -69 344 -77 174 -245 346 -417 426 -117 55
-191 72 -333 75 -71 2 -139 2 -150 -1z m330 -49 c138 -37 255 -104 363 -209
112 -108 188 -237 229 -387 24 -89 24 -309 0 -398 -41 -150 -117 -279 -229
-387 -109 -106 -225 -172 -369 -211 -89 -24 -309 -24 -398 0 -231 63 -425 220
-530 428 -28 57 -59 133 -68 169 -24 91 -24 311 0 399 84 311 332 545 642 607
88 17 277 11 360 -11z"/>
<path d="M1230 1791 c0 -6 13 -11 29 -11 58 0 61 -17 61 -292 0 -235 -1 -249
-20 -268 -11 -11 -31 -20 -45 -20 -14 0 -25 -4 -25 -9 0 -4 90 -7 200 -5 170
3 207 6 243 22 76 34 118 107 102 180 -8 37 -59 90 -94 98 -14 3 -30 7 -36 8
-5 2 7 11 27 20 113 54 100 208 -22 264 -43 20 -420 31 -420 13z m152 -158 c2
-76 2 -199 0 -275 -3 -122 -5 -138 -20 -138 -16 0 -17 23 -17 275 0 252 1 275
17 275 15 0 17 -16 20 -137z m217 108 c62 -44 76 -106 38 -162 -32 -48 -60
-59 -154 -59 l-83 0 0 119 c0 138 -5 132 101 127 50 -2 75 -9 98 -25z m105
-43 c29 -41 17 -115 -23 -145 -27 -20 -32 -15 -16 17 19 38 19 103 -1 141 -15
29 -15 30 5 20 11 -6 27 -21 35 -33z m-76 -188 c-7 -11 -17 -20 -22 -20 -5 0
-1 9 9 20 10 11 20 20 22 20 2 0 -2 -9 -9 -20z m-33 -46 c75 -31 105 -136 54
-190 -39 -42 -73 -54 -148 -54 -106 0 -101 -7 -101 134 0 68 3 126 8 130 10
11 148 -3 187 -20z m123 -37 c18 -17 22 -31 22 -75 0 -50 -3 -58 -36 -89 -38
-35 -61 -38 -29 -3 11 13 20 41 23 75 3 43 0 61 -18 89 -20 33 -20 35 -3 30
10 -4 28 -16 41 -27z"/>
</g>
</svg>
